<svg width="24" height="24" viewBox="0 0 24 24" fill="none" xmlns="http://www.w3.org/2000/svg">
<path d="M6.9917 14.502C6.86037 14.5019 6.73032 14.5278 6.60898 14.578C6.48764 14.6283 6.37739 14.7019 6.28452 14.7948C6.19166 14.8876 6.118 14.9979 6.06776 15.1192C6.01751 15.2406 5.99167 15.3706 5.9917 15.502V17.2843C4.70275 15.8266 3.99141 13.9478 3.9917 12.002C3.99152 11.7079 4.00913 11.414 4.04443 11.1221C4.06062 10.9915 4.05089 10.8591 4.01579 10.7323C3.98069 10.6055 3.92092 10.4869 3.83989 10.3832C3.75887 10.2796 3.65818 10.1929 3.54361 10.1282C3.42904 10.0636 3.30284 10.0222 3.17223 10.0064C3.04162 9.99055 2.90918 10.0007 2.78249 10.0362C2.65581 10.0716 2.53736 10.1318 2.43396 10.2131C2.33055 10.2944 2.24421 10.3954 2.17988 10.5101C2.11555 10.6249 2.0745 10.7512 2.05908 10.8819C2.01379 11.2535 1.99129 11.6276 1.9917 12.002C1.99306 14.3881 2.85066 16.6946 4.40857 18.502H2.9917C2.72649 18.502 2.47213 18.6073 2.2846 18.7949C2.09706 18.9824 1.9917 19.2367 1.9917 19.502C1.9917 19.7672 2.09706 20.0215 2.2846 20.2091C2.47213 20.3966 2.72649 20.502 2.9917 20.502H6.9917C7.1481 20.5 7.30177 20.4607 7.4399 20.3873C7.57804 20.314 7.69664 20.2086 7.78583 20.0802C7.79749 20.0648 7.81238 20.0534 7.82324 20.0372C7.8299 20.0272 7.83008 20.0154 7.8363 20.0053C7.88396 19.9248 7.91967 19.8378 7.9423 19.747C7.95711 19.696 7.96762 19.6439 7.97373 19.5911C7.9766 19.5602 7.99173 19.5336 7.99173 19.502V15.502C7.99177 15.3707 7.96593 15.2406 7.91569 15.1193C7.86545 14.9979 7.79179 14.8877 7.69892 14.7948C7.60605 14.7019 7.49579 14.6283 7.37444 14.578C7.2531 14.5278 7.12304 14.5019 6.9917 14.502ZM8.4917 6.00197H6.70923C8.16704 4.71307 10.0458 4.00174 11.9917 4.00197C12.2856 4.00126 12.5793 4.01887 12.8711 4.05471C13.0015 4.07054 13.1338 4.06054 13.2603 4.02526C13.3869 3.98998 13.5053 3.93012 13.6087 3.8491C13.7121 3.76807 13.7986 3.66747 13.8631 3.55303C13.9277 3.4386 13.969 3.31257 13.9849 3.18215C14.0007 3.05172 13.9907 2.91946 13.9554 2.7929C13.9201 2.66634 13.8603 2.54797 13.7793 2.44455C13.6982 2.34112 13.5976 2.25467 13.4832 2.19013C13.3688 2.12559 13.2427 2.08421 13.1123 2.06838C12.7405 2.02352 12.3662 2.00134 11.9917 2.00197C9.60557 2.00326 7.29912 2.8608 5.49171 4.41866V3.00197C5.49171 2.73675 5.38635 2.4824 5.19881 2.29486C5.01128 2.10732 4.75692 2.00197 4.49171 2.00197C4.22649 2.00197 3.97213 2.10732 3.7846 2.29486C3.59706 2.4824 3.4917 2.73675 3.4917 3.00197V7.00197C3.49799 7.06806 3.51117 7.13332 3.53101 7.19668L3.53125 7.1979C3.55554 7.32095 3.60348 7.43812 3.67242 7.5429L3.68384 7.5598C3.74992 7.6559 3.83274 7.73934 3.92834 7.80614C3.93927 7.81414 3.9447 7.8264 3.95605 7.83403C3.97034 7.84349 3.98652 7.84649 4.00111 7.85515C4.05782 7.88926 4.11791 7.91741 4.18042 7.93915C4.26491 7.96854 4.35299 7.98632 4.44226 7.992C4.45959 7.99292 4.47419 8.002 4.49171 8.002H8.4917C8.75692 8.002 9.01128 7.89664 9.19881 7.7091C9.38635 7.52157 9.4917 7.26721 9.4917 7.002C9.4917 6.73678 9.38635 6.48243 9.19881 6.29489C9.01128 6.10735 8.75692 6.002 8.4917 6.002V6.00197ZM20.4522 16.8061C20.4279 16.683 20.3799 16.5657 20.3109 16.461L20.2996 16.4442C20.2335 16.348 20.1506 16.2645 20.0549 16.1977C20.044 16.1898 20.0386 16.1775 20.0273 16.1699C20.0165 16.1627 20.0037 16.1625 19.9927 16.1558C19.8659 16.0853 19.7269 16.0393 19.583 16.0204C19.5514 16.0174 19.5241 16.0019 19.4917 16.0019H15.4917C15.2265 16.0019 14.9721 16.1073 14.7846 16.2948C14.5971 16.4823 14.4917 16.7367 14.4917 17.0019C14.4917 17.2671 14.5971 17.5215 14.7846 17.709C14.9721 17.8966 15.2265 18.0019 15.4917 18.0019H17.2741C15.8163 19.2908 13.9376 20.0022 11.9917 20.0019C11.6977 20.0023 11.404 19.9844 11.1123 19.9482C10.8489 19.9162 10.5836 19.9902 10.3747 20.1538C10.1658 20.3175 10.0305 20.5574 9.99854 20.8208C9.96655 21.0842 10.0405 21.3495 10.2041 21.5584C10.3678 21.7672 10.6077 21.9025 10.8711 21.9345C11.2429 21.9794 11.6172 22.0019 11.9917 22.0019C14.3778 22.0006 16.6843 21.1431 18.4917 19.5852V21.002C18.4917 21.2672 18.5971 21.5215 18.7846 21.7091C18.9721 21.8966 19.2265 22.002 19.4917 22.002C19.7569 22.002 20.0113 21.8966 20.1988 21.7091C20.3863 21.5215 20.4917 21.2672 20.4917 21.002V17.002C20.4854 16.9359 20.4722 16.8706 20.4524 16.8073L20.4522 16.8061ZM20.9917 5.50197C21.2569 5.50197 21.5113 5.39661 21.6988 5.20907C21.8863 5.02154 21.9917 4.76718 21.9917 4.50197C21.9917 4.23675 21.8863 3.9824 21.6988 3.79486C21.5113 3.60732 21.2569 3.50197 20.9917 3.50197H16.9917C16.9266 3.50824 16.8623 3.52121 16.7999 3.54067L16.7932 3.54201C16.6718 3.5663 16.5561 3.61367 16.4525 3.68154L16.4329 3.69478C16.3373 3.76075 16.2542 3.84331 16.1876 3.93856C16.1798 3.94936 16.1676 3.95467 16.1602 3.96584C16.153 3.97658 16.1528 3.98928 16.1461 4.0002C16.0747 4.12779 16.0284 4.26786 16.0097 4.41286C16.0068 4.44375 15.9917 4.47036 15.9917 4.50197V8.50197C15.9917 8.76718 16.0971 9.02154 16.2846 9.20907C16.4721 9.39661 16.7265 9.50197 16.9917 9.50197C17.2569 9.50197 17.5113 9.39661 17.6988 9.20907C17.8863 9.02154 17.9917 8.76718 17.9917 8.50197V6.71909C19.2806 8.17706 19.9919 10.0559 19.9917 12.0019C19.9919 12.296 19.9743 12.5898 19.939 12.8818C19.9073 13.145 19.9813 13.4101 20.1448 13.6188C20.3083 13.8275 20.5479 13.9628 20.811 13.9951C20.8516 13.9998 20.8923 14.0021 20.9331 14.0019C21.1773 14.0016 21.4129 13.9119 21.5955 13.7498C21.7781 13.5878 21.8951 13.3644 21.9243 13.122C21.9696 12.7504 21.9921 12.3763 21.9917 12.002C21.9903 9.61578 21.1327 7.30933 19.5747 5.50197H20.9917Z" fill="#9CA3AF"/>
</svg>
