<svg width="42" height="36" viewBox="0 0 42 36" fill="none" xmlns="http://www.w3.org/2000/svg">
<path d="M41.8865 21.7241C41.7941 21.5664 41.6522 21.4436 41.4827 21.375L38.4705 20.142L41.5903 18.3048C41.9847 18.074 42.1174 17.5671 41.8865 17.1727C41.7941 17.0149 41.6522 16.8921 41.4827 16.8236L38.4705 15.5905L41.5903 13.7534C41.8628 13.5895 42.0172 13.2839 41.9875 12.9673C41.9636 12.6546 41.7649 12.3821 41.4745 12.2639L29.6159 7.40623L23.7735 4.92363C23.6787 4.88609 23.5776 4.86654 23.4756 4.86571L13.959 0.992852C13.7253 0.895824 13.4601 0.911133 13.239 1.03423L0.486746 8.20067C0.0785654 8.40621 -0.0856999 8.90376 0.119839 9.31194C0.213557 9.49814 0.374202 9.64213 0.5695 9.71505L3.64792 10.9895L0.486746 12.7521C0.0890131 12.9772 -0.0509435 13.4822 0.174146 13.8799C0.263623 14.038 0.402441 14.1621 0.5695 14.2334L3.64792 15.5078L0.503297 17.2704C0.0828065 17.4496 -0.112698 17.9358 0.0664628 18.3562C0.159871 18.5753 0.343169 18.7435 0.5695 18.8179L3.64792 20.084L0.503297 21.8467C0.105564 22.0718 -0.0343929 22.5768 0.190696 22.9745C0.280173 23.1326 0.418992 23.2567 0.58605 23.328L11.2861 27.8711C11.3252 27.8996 11.3667 27.9245 11.4102 27.9456L17.2608 30.4282L28.0188 35.0045C28.2608 35.1072 28.5373 35.0888 28.7636 34.9548L41.5903 27.4077C41.9847 27.1768 42.1174 26.67 41.8865 26.2755C41.7941 26.1178 41.6522 25.995 41.4827 25.9264L38.4705 24.6934L41.5903 22.8563C41.9847 22.6255 42.1173 22.1185 41.8865 21.7241ZM39.3063 17.7091L28.2753 24.2053L18.4111 20.0179V17.2623L28.0105 21.342C28.1126 21.3854 28.2224 21.408 28.3332 21.4082C28.4818 21.4082 28.6275 21.3682 28.7553 21.2923L36.6748 16.6333L39.3063 17.7091ZM39.3394 13.1494L28.2753 19.6456L19.3131 15.8389L29.409 9.09451L39.3394 13.1494ZM10.8806 25.9183L2.76246 22.4674L5.55125 20.9034L10.8888 23.1708L10.8806 25.9183ZM10.8806 21.3668L2.76246 17.916L5.55125 16.3354L10.8888 18.6029L10.8806 21.3668ZM10.8806 16.8154L2.76246 13.3729L5.55125 11.8088L10.8888 14.0763L10.8806 16.8154ZM2.76246 8.82142L13.7025 2.67285L21.6385 5.92505L11.6419 12.595L2.76246 8.82142ZM17.1202 15.3258C16.8921 15.48 16.7556 15.7374 16.7561 16.0127V28.4257L12.5439 26.6382V13.9852L23.5087 6.67811L27.5885 8.33318L17.1202 15.3258ZM39.3063 26.812L28.2753 33.2999L18.4111 29.1125V26.3651L28.0105 30.4035C28.2526 30.5062 28.5291 30.4878 28.7553 30.3538L36.6748 25.6948L39.3063 26.812ZM28.2753 28.7484L18.4111 24.5611V21.8137L28.0188 25.8934C28.2608 25.9962 28.5373 25.9777 28.7636 25.8438L36.6831 21.1848L39.3063 22.2606L28.2753 28.7484Z" fill="#D30905"/>
</svg>
