<svg width="17" height="16" viewBox="0 0 17 16" fill="none" xmlns="http://www.w3.org/2000/svg">
<g clip-path="url(#clip0)">
<path d="M8.97266 15.5C13.1148 15.5 16.4727 12.1421 16.4727 8C16.4727 3.85786 13.1148 0.5 8.97266 0.5C4.83052 0.5 1.47266 3.85786 1.47266 8C1.47266 12.1421 4.83052 15.5 8.97266 15.5Z" fill="#5ADE9C"/>
<path opacity="0.15" d="M9.97257 14.5C8.54948 14.4999 7.15575 14.095 5.95417 13.3325C4.75259 12.57 3.79274 11.4814 3.18672 10.1938C2.5807 8.90619 2.35353 7.47273 2.53172 6.06083C2.70992 4.64894 3.28613 3.31688 4.19307 2.22021C3.38813 2.88587 2.7311 3.71232 2.26408 4.64662C1.79706 5.58092 1.53034 6.60247 1.48102 7.64583C1.4317 8.68919 1.60086 9.73135 1.97766 10.7055C2.35447 11.6797 2.9306 12.5645 3.66917 13.3031C4.40773 14.0417 5.29243 14.6179 6.2666 14.9948C7.24076 15.3716 8.28291 15.5409 9.32627 15.4916C10.3696 15.4424 11.3912 15.1757 12.3255 14.7088C13.2599 14.2418 14.0864 13.5849 14.7521 12.78C13.4087 13.894 11.7177 14.5025 9.97257 14.5Z" fill="#000028"/>
<path d="M6.22168 8.00377L8.46968 10.2518L12.4724 6.24902" stroke="white" stroke-linecap="round" stroke-linejoin="round"/>
</g>
<defs>
<clipPath id="clip0">
<rect width="16" height="16" fill="white" transform="translate(0.972656)"/>
</clipPath>
</defs>
</svg>
