<svg width="76" height="76" viewBox="0 0 76 76" fill="none" xmlns="http://www.w3.org/2000/svg">
<path d="M36.8911 51.3873L36.8771 51.377L36.8625 51.3677L0.871614 28.4623L36.8743 0.875816C36.8751 0.87523 36.8758 0.874645 36.8766 0.87406C37.5437 0.377266 38.4563 0.377266 39.1234 0.87406C39.1242 0.874645 39.1249 0.87523 39.1257 0.875816L75.1284 28.4623L39.1375 51.3677L39.1229 51.377L39.1089 51.3873C38.7804 51.63 38.3914 51.7503 38 51.7503C37.6086 51.7503 37.2196 51.63 36.8911 51.3873Z" fill="#FC6E61" stroke="#C90A0F"/>
<path d="M14.25 0.5H61.75C64.0955 0.5 66 2.40857 66 4.75V57C66 58.0349 65.1599 58.875 64.125 58.875H11.875C10.8401 58.875 10 58.0349 10 57V4.75C10 2.40889 11.9089 0.5 14.25 0.5Z" fill="white" stroke="#C80A11"/>
<path d="M21.375 14.25H54.625C55.936 14.25 57 13.186 57 11.875C57 10.564 55.936 9.5 54.625 9.5H21.375C20.064 9.5 19 10.564 19 11.875C19 13.186 20.064 14.25 21.375 14.25Z" fill="#E8E5E5"/>
<path d="M54.625 19H21.375C20.064 19 19 20.064 19 21.375C19 22.686 20.064 23.75 21.375 23.75H54.625C55.936 23.75 57 22.686 57 21.375C57 20.064 55.936 19 54.625 19Z" fill="#E8E5E5"/>
<path d="M40.375 28.5H21.375C20.064 28.5 19 29.564 19 30.875C19 32.186 20.064 33.25 21.375 33.25H40.375C41.686 33.25 42.75 32.186 42.75 30.875C42.75 29.564 41.686 28.5 40.375 28.5Z" fill="#E8E5E5"/>
<path d="M38 52.75C38.5909 52.75 39.1841 52.5698 39.6884 52.2022L75.5 29.4109V71.25C75.5 73.5959 73.5959 75.5 71.25 75.5H4.75C2.40414 75.5 0.5 73.5959 0.5 71.25V29.4109L36.3116 52.2022C36.8159 52.5698 37.4091 52.75 38 52.75Z" fill="white" stroke="#C90A0F"/>
<path d="M36.8714 46.0018L36.8814 45.9951L36.8911 45.9879C37.2196 45.7452 37.6086 45.625 38 45.625C38.3914 45.625 38.7804 45.7452 39.1089 45.9879L39.1186 45.9951L39.1286 46.0018L74.7437 69.7451C75.2182 70.0978 75.5 70.6575 75.5 71.25C75.5 73.6386 73.6386 75.5 71.25 75.5H4.75C2.36139 75.5 0.5 73.6386 0.5 71.25C0.5 70.6575 0.781819 70.0978 1.25636 69.7451L36.8714 46.0018Z" fill="#FFDCD9" stroke="#C90A0F"/>
</svg>
