<svg width="18" height="22" viewBox="0 0 18 22" fill="none" xmlns="http://www.w3.org/2000/svg">
<path fill-rule="evenodd" clip-rule="evenodd" d="M2 0.499985H16C17.1 0.499985 18 1.39998 18 2.49998V16.5C18 17.6 17.1 18.5 16 18.5H12L9 21.5L6 18.5H2C0.89 18.5 0 17.6 0 16.5V2.49998C0 1.39998 0.89 0.499985 2 0.499985ZM11.17 16.5H16V2.49998H2V16.5H6.83L7.41 17.08L9 18.67L10.58 17.09L11.17 16.5ZM8 15.5V13.5H10V15.5H8ZM11 7.49998C11 6.39998 10.1 5.49998 9 5.49998C7.9 5.49998 7 6.39998 7 7.49998H5C5 5.28998 6.79 3.49998 9 3.49998C11.21 3.49998 13 5.28998 13 7.49998C13 8.7829 12.21 9.4733 11.4408 10.1455C10.711 10.7832 10 11.4046 10 12.5H8C8 10.6787 8.94212 9.95657 9.77044 9.32166C10.4202 8.82359 11 8.3792 11 7.49998Z" fill="#1E3A8A"/>
</svg>
