<svg width="24" height="24" viewBox="0 0 24 24" fill="none" xmlns="http://www.w3.org/2000/svg">
<path d="M19.5 12V19.5C19.5 19.6989 19.421 19.8897 19.2803 20.0303C19.1397 20.171 18.9489 20.25 18.75 20.25H4.5C4.30109 20.25 4.11032 20.171 3.96967 20.0303C3.82902 19.8897 3.75 19.6989 3.75 19.5V5.25C3.75 5.05109 3.82902 4.86032 3.96967 4.71967C4.11032 4.57902 4.30109 4.5 4.5 4.5H12" stroke="#9CA3AF" stroke-width="2" stroke-linecap="round" stroke-linejoin="round"/>
<path d="M18.375 8.25C19.8247 8.25 21 7.07475 21 5.625C21 4.17525 19.8247 3 18.375 3C16.9253 3 15.75 4.17525 15.75 5.625C15.75 7.07475 16.9253 8.25 18.375 8.25Z" stroke="#9CA3AF" stroke-width="2" stroke-linecap="round" stroke-linejoin="round"/>
</svg>
