<svg width="20" height="20" viewBox="0 0 20 20" fill="none" xmlns="http://www.w3.org/2000/svg">
<path d="M3.0885 13.0283C2.94576 13.1107 2.83067 13.2336 2.75777 13.3814C2.68487 13.5293 2.65744 13.6954 2.67896 13.8588C2.70047 14.0222 2.76996 14.1756 2.87863 14.2995C2.98731 14.4234 3.13028 14.5123 3.28949 14.555C3.44869 14.5976 3.61697 14.5921 3.77304 14.5391C3.92911 14.4861 4.06597 14.3881 4.1663 14.2573C4.26663 14.1265 4.32594 13.969 4.33671 13.8045C4.34749 13.64 4.30925 13.4761 4.22683 13.3333C4.11632 13.1419 3.9343 13.0023 3.72083 12.9451C3.50735 12.8879 3.2799 12.9178 3.0885 13.0283ZM3.92183 5.52833C3.7791 5.44591 3.61513 5.40767 3.45067 5.41844C3.2862 5.42921 3.12862 5.48851 2.99785 5.58884C2.86709 5.68917 2.76901 5.82603 2.71603 5.9821C2.66304 6.13817 2.65753 6.30644 2.70018 6.46565C2.74283 6.62485 2.83174 6.76784 2.95565 6.87651C3.07957 6.98519 3.23293 7.05468 3.39634 7.0762C3.55975 7.09771 3.72587 7.07029 3.87369 6.99739C4.02151 6.9245 4.1444 6.8094 4.22681 6.66666C4.33731 6.47527 4.36726 6.24781 4.31007 6.03434C4.25288 5.82086 4.11322 5.63885 3.92183 5.52833ZM3.33366 10C3.33366 9.83518 3.28479 9.67406 3.19322 9.53702C3.10165 9.39998 2.9715 9.29317 2.81923 9.2301C2.66696 9.16703 2.4994 9.15052 2.33775 9.18268C2.1761 9.21483 2.02761 9.2942 1.91107 9.41074C1.79453 9.52729 1.71516 9.67577 1.683 9.83742C1.65085 9.99907 1.66735 10.1666 1.73043 10.3189C1.7935 10.4712 1.90031 10.6013 2.03735 10.6929C2.17439 10.7845 2.33551 10.8333 2.50033 10.8333C2.72134 10.8333 2.9333 10.7455 3.08958 10.5893C3.24586 10.433 3.33366 10.221 3.33366 10ZM16.9121 6.97166C17.0549 6.88926 17.17 6.76638 17.2429 6.61855C17.3158 6.47073 17.3432 6.30461 17.3217 6.1412C17.3002 5.97779 17.2307 5.82443 17.122 5.70051C17.0134 5.57659 16.8704 5.48768 16.7112 5.44502C16.552 5.40236 16.3837 5.40788 16.2276 5.46086C16.0716 5.51384 15.9347 5.61192 15.8344 5.74268C15.734 5.87344 15.6747 6.03102 15.664 6.19549C15.6532 6.35996 15.6914 6.52393 15.7738 6.66666C15.8844 6.85804 16.0664 6.99768 16.2798 7.05487C16.4933 7.11207 16.7207 7.08214 16.9121 6.97166ZM6.66699 15.7735C6.52426 15.691 6.36029 15.6528 6.19582 15.6636C6.03136 15.6744 5.87378 15.7337 5.74302 15.834C5.61225 15.9343 5.51418 16.0712 5.4612 16.2273C5.40822 16.3833 5.4027 16.5516 5.44536 16.7108C5.48802 16.87 5.57692 17.013 5.70084 17.1217C5.82476 17.2303 5.97812 17.2998 6.14153 17.3213C6.30494 17.3429 6.47106 17.3154 6.61888 17.2425C6.7667 17.1696 6.88958 17.0545 6.97199 16.9118C7.08249 16.7204 7.11244 16.4929 7.05524 16.2795C6.99804 16.066 6.85839 15.884 6.66699 15.7735ZM10.0003 1.66666C9.83551 1.66666 9.67439 1.71554 9.53735 1.80711C9.40031 1.89867 9.2935 2.02882 9.23043 2.18109C9.16735 2.33337 9.15085 2.50092 9.183 2.66257C9.21516 2.82422 9.29453 2.97271 9.41107 3.08925C9.52761 3.2058 9.6761 3.28516 9.83775 3.31732C9.9994 3.34947 10.167 3.33297 10.3192 3.2699C10.4715 3.20682 10.6016 3.10001 10.6932 2.96297C10.7848 2.82593 10.8337 2.66482 10.8337 2.5C10.8337 2.27898 10.7459 2.06702 10.5896 1.91074C10.4333 1.75446 10.2213 1.66666 10.0003 1.66666ZM10.0003 16.6667C9.83551 16.6667 9.67439 16.7155 9.53735 16.8071C9.40031 16.8987 9.2935 17.0288 9.23043 17.1811C9.16735 17.3334 9.15085 17.5009 9.183 17.6626C9.21516 17.8242 9.29453 17.9727 9.41107 18.0893C9.52761 18.2058 9.6761 18.2852 9.83775 18.3173C9.9994 18.3495 10.167 18.333 10.3192 18.2699C10.4715 18.2068 10.6016 18.1 10.6932 17.963C10.7848 17.8259 10.8337 17.6648 10.8337 17.5C10.8337 17.279 10.7459 17.067 10.5896 16.9107C10.4333 16.7545 10.2213 16.6667 10.0003 16.6667ZM16.9121 13.0283C16.7694 12.9459 16.6054 12.9077 16.441 12.9185C16.2765 12.9293 16.1189 12.9886 15.9882 13.0889C15.8574 13.1893 15.7594 13.3261 15.7064 13.4822C15.6534 13.6383 15.6479 13.8066 15.6906 13.9658C15.7333 14.125 15.8222 14.2679 15.9461 14.3766C16.07 14.4853 16.2234 14.5547 16.3868 14.5762C16.5502 14.5978 16.7163 14.5703 16.8641 14.4974C17.0119 14.4245 17.1348 14.3094 17.2172 14.1667C17.2719 14.0719 17.3075 13.9673 17.3217 13.8588C17.336 13.7503 17.3288 13.64 17.3005 13.5343C17.2721 13.4286 17.2233 13.3295 17.1566 13.2427C17.09 13.1559 17.0069 13.083 16.9121 13.0283ZM17.5003 9.16666C17.3355 9.16666 17.1744 9.21554 17.0373 9.30711C16.9003 9.39867 16.7935 9.52882 16.7304 9.6811C16.6674 9.83337 16.6508 10.0009 16.683 10.1626C16.7152 10.3242 16.7945 10.4727 16.9111 10.5893C17.0276 10.7058 17.1761 10.7852 17.3377 10.8173C17.4994 10.8495 17.667 10.833 17.8192 10.7699C17.9715 10.7068 18.1017 10.6 18.1932 10.463C18.2848 10.3259 18.3337 10.1648 18.3337 10C18.3337 9.77898 18.2459 9.56702 18.0896 9.41074C17.9333 9.25446 17.7213 9.16666 17.5003 9.16666ZM14.167 2.7831C14.0243 2.70068 13.8603 2.66245 13.6958 2.67322C13.5314 2.684 13.3738 2.7433 13.243 2.84363C13.1123 2.94396 13.0142 3.08082 12.9612 3.23689C12.9082 3.39296 12.9027 3.56124 12.9454 3.72044C12.988 3.87965 13.0769 4.02263 13.2008 4.1313C13.3248 4.23997 13.4781 4.30946 13.6415 4.33097C13.8049 4.35249 13.9711 4.32506 14.1189 4.25216C14.2667 4.17927 14.3896 4.06417 14.472 3.92143C14.5825 3.73003 14.6124 3.50258 14.5552 3.2891C14.498 3.07562 14.3584 2.89361 14.167 2.7831ZM13.3337 15.7735C13.1909 15.8559 13.0758 15.9788 13.0029 16.1266C12.93 16.2744 12.9026 16.4405 12.9241 16.6039C12.9456 16.7673 13.0151 16.9207 13.1238 17.0446C13.2325 17.1685 13.3754 17.2574 13.5346 17.3001C13.6938 17.3428 13.8621 17.3372 14.0182 17.2843C14.1743 17.2313 14.3111 17.1332 14.4115 17.0024C14.5118 16.8717 14.5711 16.7141 14.5819 16.5496C14.5926 16.3852 14.5544 16.2212 14.472 16.0785C14.3615 15.8871 14.1795 15.7474 13.966 15.6902C13.7525 15.633 13.5251 15.663 13.3337 15.7735Z" fill="#6D7175"/>
</svg>
