<svg id="Page-1" xmlns="http://www.w3.org/2000/svg" width="158.531" height="74.447" viewBox="0 0 158.531 74.447">
  <path id="Shape" d="M146.753,70.446l.056-.056v1.972a2.41,2.41,0,0,1-1.8.9c-.789,0-1.353-.282-1.353-1.184,0-1.353,1.465-1.691,2.254-1.691.113,0,.564.056.845.056Zm-82.619,0c.056.056.113.056.169-.056v1.916a2.409,2.409,0,0,1-1.86.958c-.733,0-1.3-.225-1.3-1.127,0-1.353,1.353-1.747,2.2-1.747a4.605,4.605,0,0,1,.789.056Zm-7.214.507c0,1.86-1.409,2.085-2.649,2.085a6.517,6.517,0,0,1-.958-.056v-4a6.694,6.694,0,0,0,1.071,0c1.409,0,2.536.282,2.536,1.973ZM43.789,68.3v4.283a2.074,2.074,0,0,1-1.409.62c-1.916,0-2.423-1.353-2.423-2.761,0-1.3.676-2.874,2.367-2.874a1.638,1.638,0,0,1,1.465.733Zm-9.13-.676a2.29,2.29,0,0,1,1.353,1.522v.282h-4.17v-.169a2.089,2.089,0,0,1,2.142-1.691,3.235,3.235,0,0,1,.676.056Zm63.909,2.705c0,1.127-.338,2.874-2.085,2.874-1.8,0-1.972-1.8-1.972-2.818s.282-2.874,2.029-2.874S98.568,69.263,98.568,70.333Zm34.49-3.832v7.777h-1.353v-6.65h-1.071V66.5h2.423Zm-110.346,0v7.777H21.3v-6.65H20.232V66.5h2.48Zm93.158,4.4h-2.987l1.578-4.452Zm31.165-4.17c.733.282,1.24,1.691,1.24,2.311V72.7a1.344,1.344,0,0,0,.62,1.014v.676h-.676c-.451-.113-1.127-.507-1.24-.958a3.5,3.5,0,0,1-2.48,1.014,2.283,2.283,0,0,1-2.254-2.367c0-2.085,2.254-2.818,3.607-2.818.113,0,.62.113.958.169a.423.423,0,0,0,.056-.282,1.542,1.542,0,0,0-1.747-1.578,2.629,2.629,0,0,0-1.86.676,4.669,4.669,0,0,1-.62-1.127c0-.113.507-.394.733-.451a3.246,3.246,0,0,1,.958-.282,3.465,3.465,0,0,1,.733-.056,5.853,5.853,0,0,1,1.973.395Zm-5.918.394c-.169.282-.394.62-.62.958a3.205,3.205,0,0,0-1.86-.564c-1.973,0-2.423,1.691-2.423,2.931,0,1.634.789,2.818,2.48,2.818a3.679,3.679,0,0,0,1.916-.733l.564,1.127a6.1,6.1,0,0,1-2.762.789,3.69,3.69,0,0,1-3.607-2.987c0-.113-.056-.338-.056-.451V69.939a3.7,3.7,0,0,1,3.945-3.607,4.934,4.934,0,0,1,2.423.789Zm-11.1-.676-.507,1.353a5.4,5.4,0,0,0-.958-.282,2.037,2.037,0,0,0-1.8,1.8v4.959h-1.409V66.5h1.409a6.816,6.816,0,0,0,.056,1.071,2.33,2.33,0,0,1,2.142-1.24,9.941,9.941,0,0,1,1.071.113Zm-23.726.113c-.169.451-.338.845-.507,1.24a5.4,5.4,0,0,0-.958-.282,2.037,2.037,0,0,0-1.8,1.8v4.959h-1.409V66.5h1.409a6.823,6.823,0,0,0,.056,1.071,2.33,2.33,0,0,1,2.142-1.24,5.448,5.448,0,0,1,1.071.225Zm-6.256,3.776c0,1.973-.845,4.114-3.494,4.114-2.592,0-3.55-2.142-3.55-4.114,0-2.085,1.183-4,3.55-4C99.244,66.332,100.033,68.417,100.033,70.333Zm-27.84-3.945c.958,0,1.86,1.409,1.86,2.254v5.636H72.7V69.15a1.49,1.49,0,0,0-1.578-1.634c-.169,0-.282-.056-.338,0-.338.056-1.522.564-1.522,1.014v5.748H67.91V66.5h.958c.113.282.282.62.395.9a2.713,2.713,0,0,1,2.254-1.071c.113,0,.451.056.676.056ZM65.43,67.854c.056.282.282.733.282.9v3.663c.113.338.056.958.62,1.3v.676h-.62c-.395-.056-1.127-.394-1.24-.958-.338.676-1.972,1.014-2.536,1.014a2.32,2.32,0,0,1-2.254-2.367c0-2.085,2.254-2.818,3.607-2.818.113,0,.676.113,1.014.169.056-.056.056-.056.056-.225a1.568,1.568,0,0,0-1.747-1.634,2.475,2.475,0,0,0-1.86.676,2.876,2.876,0,0,1-.676-1.127,4.624,4.624,0,0,1,2.48-.789c.789,0,2.48.225,2.874,1.522Zm-28.009,1.8a5.2,5.2,0,0,1-.056.845H31.729v.451a2.379,2.379,0,0,0,2.48,2.311,3.175,3.175,0,0,0,1.916-.676c.225.282.395.62.62.958a5.231,5.231,0,0,1-2.818.9c-2.48,0-3.663-2.029-3.663-4,0-2.085,1.3-4.114,3.663-4.114a3.155,3.155,0,0,1,3.494,3.325Zm-20.063-3.1a3.123,3.123,0,0,1,.789.733,5.245,5.245,0,0,1,.507,1.353v5.636H17.3V69.15c-.225-1.3-.676-1.634-1.578-1.634a2.255,2.255,0,0,0-1.86,1.014v5.748H12.511V66.5h.958c.113.282.282.62.395.9a2.713,2.713,0,0,1,2.254-1.071,4.437,4.437,0,0,1,1.24.225Zm39-.338c0,1.465-1.24,1.634-2.2,1.634h-.845V64.81h.9c.845,0,2.142,0,2.142,1.409ZM26.769,66.5h2.142v1.071H26.769v4.4c.282,1.014.676,1.3,1.353,1.3a6.5,6.5,0,0,0,1.127-.282c.056.394.169.845.225,1.24-.62.113-1.747.225-1.916.225a2.319,2.319,0,0,1-2.2-2.2V67.572h-.9V66.5h.9V64.867a14.088,14.088,0,0,1,1.409-.507V66.5ZM4.4,63.627v7.214c.225,1.691,1.127,2.311,2.254,2.311A2.323,2.323,0,0,0,8.961,71.4V63.627h1.465v7.946c-.338,2.367-2.311,2.874-3.776,2.874a3.512,3.512,0,0,1-3.438-1.86,5.713,5.713,0,0,1-.225-1.014V63.627H4.4Zm128.888.733a.815.815,0,0,1-.845.9.861.861,0,0,1-.845-.845.747.747,0,0,1,.845-.845.756.756,0,0,1,.845.789Zm-110.346,0a.924.924,0,0,1-.9.9.861.861,0,0,1-.845-.845.828.828,0,0,1,.845-.845.8.8,0,0,1,.9.789Zm34.941,1.747a2.356,2.356,0,0,1-1.522,2.142l-.056.113a2.7,2.7,0,0,1,2.254,2.818c0,.113-.113.62-.169.9-.169,1.24-2.142,2.2-3.1,2.2H51.792V63.514h2.649c1.522,0,3.438.451,3.438,2.592Zm56.808-2.649,4.058,10.821h-1.634c-.225-.733-.507-1.522-.789-2.254h-3.832a18.309,18.309,0,0,0-.845,2.254h-1.634c1.409-3.607,2.874-7.214,4.283-10.821h.394Zm9.637.056a8.933,8.933,0,0,1-.451,1.014c-.169,0-.564-.113-.733-.113a1.54,1.54,0,0,0-1.465,1.691c0,.113.056.225.056.395h1.578v1.127h-1.578v6.65h-1.353v-6.65h-1.127V66.5h1.127c-.056-1.86.9-3.212,2.649-3.212a10.427,10.427,0,0,1,1.3.225Zm-31.729,0-.338,1.014a4.418,4.418,0,0,0-.789-.113A1.563,1.563,0,0,0,90,65.712V66.5h1.634v1.127H90v6.65H88.649v-6.65H87.522V66.5h1.127c0-1.916.958-3.212,2.649-3.212a7.825,7.825,0,0,1,1.3.225Zm-15.16-.225V70l2.93-3.494H82l-2.423,2.931,2.987,4.847H81.041L78.618,70.39c-.338.395-.789.845-1.183,1.24v2.649H76.025V63.289h1.409Zm-32.236,0v10.99H43.846a1.562,1.562,0,0,0-.056-.507,3.175,3.175,0,0,1-2.029.62c-2.48,0-3.325-2.085-3.325-3.832s1.183-4.227,3.607-4.227a3.816,3.816,0,0,1,1.8.507v-3.55H45.2Zm7.045-26.6c3.325.733,4.79,2.592,4.79,5.185a9.051,9.051,0,0,1-.225,1.747,5.313,5.313,0,0,1-1.014,1.747C54.128,47.5,50.947,49.2,48.974,49.2H43.338c.9-4.114,1.691-8.341,2.592-12.4,0-.113.056-.169.169-.225l4.283-.113c.113,0,1.24.113,1.86.225Zm37.364,4.734h-10.2l7.439-11.384ZM57.991,26.6c0,.113-.225,1.184-.282,1.747a5.913,5.913,0,0,1-2.761,3.889,22.529,22.529,0,0,1-3.212,1.691H46.72c.169-.9.338-1.86.507-2.762.113-.564.282-1.183.338-1.747.113-.564.282-1.184.338-1.747.113-.564.282-1.183.338-1.747.113-.564.16-.874.282-1.747.122-1.005.047-1.043.62-1.014l4.227-.113c1.8,0,4.621.958,4.621,3.55Zm33.476-8L99.921,53.37H92.312L90.96,46.551H76.251L71.742,53.37H65.43L88.987,18.6h2.48Zm-33.645,0c5.072.564,7.439,2.931,7.439,6.876,0,4.227-2.931,7.383-8.059,9.073a.339.339,0,0,0,.225.056c3.776.564,6.481,2.761,6.481,6.2,0,5.467-3.381,10.539-10.708,12.173a31.507,31.507,0,0,1-3.381.507H35.448L42.718,18.6h15.1ZM12,18.6c-.564,2.987-1.183,5.8-1.747,8.623-.451,2.085-.9,4.283-1.3,6.425C8.4,36.8,7.5,39.844,7.5,43c0,3.438,1.127,6.537,5.579,6.537,4.283,0,8.51-2.818,9.862-8.566,1.747-7.439,3.212-14.935,4.79-22.374h6.425v.169c-1.8,8.172-3.494,16.343-5.354,24.459a11.943,11.943,0,0,1-2.2,4,16.139,16.139,0,0,1-11.779,6.65c-.451.056-1.24.169-1.409.169H9.975c-.676-.056-1.409-.169-2.029-.282s-1.3-.282-1.916-.451C1.691,52.243,0,48.072,0,44.973V43.62c.056-.394.056-.845.113-1.3,1.634-7.89,3.269-15.836,4.9-23.726H12ZM128.831,53.144c-.9.113-2.649.338-2.818.338H111.981l9.468-44.466c4.959,9.693,9.919,19.5,14.822,29.305a18.886,18.886,0,0,1,1.634,6.65c0,4.9-3.438,7.27-9.073,8.172Zm20.176-8.679c-2.874-5.579-5.748-11.215-8.566-16.794-1.578-3.1-3.156-6.312-4.734-9.355-.507-1.071-1.071-2.029-1.522-3.043a22.183,22.183,0,0,1-1.634-6.2V7.89a8.7,8.7,0,0,1,.282-1.747C134.523.789,140.779.282,144.5,0h14.033Z" fill="#fff" fill-rule="evenodd"/>
</svg>
