<svg width="20" height="20" viewBox="0 0 20 20" fill="none" xmlns="http://www.w3.org/2000/svg">
<rect width="20" height="20" fill="white" fill-opacity="0.01"/>
<path fill-rule="evenodd" clip-rule="evenodd" d="M10.6387 3.31848C10.8412 3.40238 11.0251 3.52535 11.18 3.68036L16.32 8.81953C16.4752 8.97447 16.5983 9.15848 16.6822 9.36102C16.7662 9.56357 16.8094 9.78068 16.8094 9.99994C16.8094 10.2192 16.7662 10.4363 16.6822 10.6389C16.5983 10.8414 16.4752 11.0254 16.32 11.1804L11.18 16.3195C11.0251 16.4745 10.8412 16.5975 10.6387 16.6814C10.4362 16.7653 10.2192 16.8085 10 16.8085C9.78088 16.8085 9.56387 16.7653 9.3614 16.6814C9.15893 16.5975 8.97498 16.4745 8.82004 16.3195L3.68004 11.1804C3.52491 11.0254 3.40184 10.8414 3.31786 10.6389C3.23389 10.4363 3.19067 10.2192 3.19067 9.99994C3.19067 9.78068 3.23389 9.56357 3.31786 9.36102C3.40184 9.15848 3.52491 8.97447 3.68004 8.81953L8.82004 3.68036C8.97498 3.52535 9.15893 3.40238 9.3614 3.31848C9.56387 3.23459 9.78088 3.19141 10 3.19141C10.2192 3.19141 10.4362 3.23459 10.6387 3.31848ZM9.41079 11.4221C9.56707 11.5784 9.77903 11.6662 10 11.6662C10.2211 11.6662 10.433 11.5784 10.5893 11.4221C10.7456 11.2658 10.8334 11.0539 10.8334 10.8329V6.66619C10.8334 6.44517 10.7456 6.23321 10.5893 6.07693C10.433 5.92065 10.2211 5.83286 10 5.83286C9.77903 5.83286 9.56707 5.92065 9.41079 6.07693C9.25451 6.23321 9.16671 6.44517 9.16671 6.66619V10.8329C9.16671 11.0539 9.25451 11.2658 9.41079 11.4221ZM9.41079 13.9221C9.56707 14.0784 9.77903 14.1662 10 14.1662C10.2211 14.1662 10.433 14.0784 10.5893 13.9221C10.7456 13.7658 10.8334 13.5539 10.8334 13.3329C10.8334 13.1118 10.7456 12.8999 10.5893 12.7436C10.433 12.5873 10.2211 12.4995 10 12.4995C9.77903 12.4995 9.56707 12.5873 9.41079 12.7436C9.25451 12.8999 9.16671 13.1118 9.16671 13.3329C9.16671 13.5539 9.25451 13.7658 9.41079 13.9221Z" fill="#BF2600"/>
</svg>
